<?xml version="1.0" encoding="iso-8859-1"?>
<!-- Uploaded to: SVG Repo, www.svgrepo.com, Generator: SVG Repo Mixer Tools -->
<svg height="800px" width="800px" version="1.1" id="Layer_1" xmlns="http://www.w3.org/2000/svg" xmlns:xlink="http://www.w3.org/1999/xlink" 
	 viewBox="0 0 512 512" xml:space="preserve">
<path style="fill:#534532;" d="M155.822,473.676c-4.227,0-8.454-1.612-11.678-4.838l-56.058-56.056l-56.058,56.057
	c-6.45,6.45-16.907,6.45-23.357,0c-6.45-6.45-6.45-16.907,0-23.357l79.415-79.415l79.415,79.415c6.45,6.45,6.45,16.907,0,23.357
	C164.276,472.064,160.049,473.676,155.822,473.676z"/>
<path style="fill:#5D4E38;" d="M88.086,447.924c-9.121,0-16.516-7.395-16.516-16.516V54.84c0-9.121,7.395-16.516,16.516-16.516
	s16.516,7.395,16.516,16.516v376.568C104.602,440.529,97.207,447.924,88.086,447.924z"/>
<path style="fill:#F6D433;" d="M159.656,96.681H16.516C7.395,96.681,0,89.286,0,80.165s7.395-16.516,16.516-16.516h143.14
	c9.121,0,16.516,7.395,16.516,16.516S168.777,96.681,159.656,96.681z"/>
<path style="fill:#E5BF2B;" d="M159.656,141.825H16.516C7.395,141.825,0,134.43,0,125.309s7.395-16.516,16.516-16.516h143.14
	c9.121,0,16.516,7.395,16.516,16.516S168.777,141.825,159.656,141.825z"/>
<path style="fill:#534532;" d="M491.651,473.676c-4.227,0-8.454-1.612-11.678-4.838l-56.059-56.057l-56.058,56.058
	c-6.45,6.45-16.908,6.45-23.357,0c-6.45-6.45-6.45-16.907,0-23.357l79.415-79.415l79.415,79.415c6.45,6.449,6.45,16.907,0,23.357
	C500.104,472.064,495.877,473.676,491.651,473.676z"/>
<path style="fill:#5D4E38;" d="M423.914,447.924c-9.121,0-16.516-7.395-16.516-16.516V54.84c0-9.121,7.395-16.516,16.516-16.516
	c9.121,0,16.516,7.395,16.516,16.516v376.568C440.43,440.529,433.035,447.924,423.914,447.924z"/>
<path style="fill:#F6D433;" d="M495.484,96.681h-143.14c-9.121,0-16.516-7.395-16.516-16.516s7.395-16.516,16.516-16.516h143.14
	c9.121,0,16.516,7.395,16.516,16.516S504.605,96.681,495.484,96.681z"/>
<path style="fill:#E5BF2B;" d="M495.484,141.825h-143.14c-9.121,0-16.516-7.395-16.516-16.516s7.395-16.516,16.516-16.516h143.14
	c9.121,0,16.516,7.395,16.516,16.516S504.605,141.825,495.484,141.825z"/>
<path style="fill:#DF871E;" d="M204.046,250.275l-131.08,25.76c-7.953,1.562-15.667-3.617-17.231-11.57l-12.6-64.115
	c-1.562-7.953,3.617-15.667,11.57-17.231l131.08-25.76c7.953-1.562,15.667,3.617,17.231,11.57l12.6,64.115
	C217.179,240.998,211.999,248.713,204.046,250.275z"/>
<path style="fill:#A16125;" d="M307.954,250.275l131.08,25.76c7.953,1.562,15.667-3.617,17.231-11.57l12.6-64.115
	c1.562-7.953-3.617-15.667-11.57-17.231l-131.08-25.76c-7.953-1.562-15.667,3.617-17.231,11.57l-12.6,64.115
	C294.821,240.998,300,248.713,307.954,250.275z"/>
<path style="fill:#57565C;" d="M323.737,473.676c-4.227,0-8.454-1.612-11.678-4.838L256,412.781l-56.058,56.058
	c-6.45,6.45-16.907,6.45-23.357,0s-6.45-16.907,0-23.357L256,366.066l79.415,79.415c6.45,6.449,6.45,16.907,0,23.357
	C332.19,472.064,327.963,473.676,323.737,473.676z"/>
<circle style="fill:#5A7EBF;" cx="256" cy="304.932" r="133.781"/>
<path style="fill:#4360AC;" d="M256,171.145v267.561c73.885,0,133.781-59.895,133.781-133.781S329.884,171.145,256,171.145z"/>
<path style="fill:#FFFFFF;" d="M256,402.371c-53.731,0-97.445-43.714-97.445-97.445s43.714-97.445,97.445-97.445
	s97.445,43.714,97.445,97.445S309.731,402.371,256,402.371z"/>
<path style="fill:#E1E1E3;" d="M256,207.481v194.89c53.731,0,97.445-43.714,97.445-97.445S309.731,207.481,256,207.481z"/>
</svg>