<?xml version="1.0" encoding="iso-8859-1"?>
<!-- Uploaded to: SVG Repo, www.svgrepo.com, Generator: SVG Repo Mixer Tools -->
<svg version="1.1" id="Layer_1" xmlns="http://www.w3.org/2000/svg" xmlns:xlink="http://www.w3.org/1999/xlink" 
	 viewBox="0 0 512 512" xml:space="preserve">
<path style="fill:#A36300;" d="M33.135,509.443L2.558,478.866c-3.41-3.41-3.41-8.939,0-12.348L61.2,407.876
	c3.41-3.41,8.939-3.41,12.348,0l30.577,30.577c3.41,3.41,3.41,8.939,0,12.348l-58.643,58.643
	C42.072,512.852,36.544,512.852,33.135,509.443z"/>
<path style="fill:#C57300;" d="M508.486,55.891L456.109,3.513c-4.685-4.685-12.279-4.685-16.963,0l-320.039,320.04l35.082,35.082
	c-19.376,19.376-50.79,19.376-70.166,0l0,0l-34.583,34.583c-4.685,4.685-4.685,12.279,0,16.963l52.377,52.377
	c4.685,4.685,12.279,4.685,16.963,0L508.486,72.853C513.171,68.17,513.171,60.575,508.486,55.891z"/>
<path style="fill:#A36300;" d="M508.486,55.891l-25.775-25.775L154.19,358.636l0,0c-0.001,0.001-0.001,0.001-0.002,0.002
	l-78.146,78.146l25.775,25.775c4.685,4.685,12.279,4.685,16.963,0L508.486,72.853C513.171,68.17,513.171,60.575,508.486,55.891z"/>
<g>
	<circle style="fill:#5E3C16;" cx="428.517" cy="84.305" r="17.511"/>
	<circle style="fill:#5E3C16;" cx="375.069" cy="137.754" r="17.511"/>
	<circle style="fill:#5E3C16;" cx="321.621" cy="191.202" r="17.511"/>
	<circle style="fill:#5E3C16;" cx="268.174" cy="244.65" r="17.511"/>
	<circle style="fill:#5E3C16;" cx="214.726" cy="298.109" r="17.511"/>
</g>
<rect x="37.232" y="433.037" transform="matrix(-0.7071 -0.7071 0.7071 -0.7071 -198.8687 806.4357)" style="fill:#844D00;" width="60.705" height="22.735"/>
</svg>