<?xml version="1.0" encoding="iso-8859-1"?>
<!-- Uploaded to: SVG Repo, www.svgrepo.com, Generator: SVG Repo Mixer Tools -->
<svg height="800px" width="800px" version="1.1" id="Capa_1" xmlns="http://www.w3.org/2000/svg" xmlns:xlink="http://www.w3.org/1999/xlink" 
	 viewBox="0 0 512 512" xml:space="preserve">
<path style="fill:#DD9520;" d="M425.216,113.461c-1.466-11.638-11.362-20.37-23.091-20.37h-292.25
	c-11.731,0-21.627,8.732-23.09,20.37c-6.111,48.593-9.21,96.549-9.21,142.539c0,62.29,14.769,125.437,29.057,186.5
	c4.152,17.751,8.073,34.52,11.585,51.06c2.281,10.752,11.773,18.44,22.764,18.44h230.037c10.991,0,20.483-7.688,22.765-18.438
	c3.51-16.531,7.43-33.289,11.579-51.032c14.288-61.074,29.061-124.228,29.061-186.529
	C434.424,210.01,431.326,162.054,425.216,113.461z"/>
<path style="fill:#AF6D00;" d="M425.216,113.461c-1.466-11.638-11.362-20.37-23.091-20.37H255.747V512h115.271
	c10.991,0,20.483-7.688,22.765-18.438c3.51-16.531,7.43-33.289,11.579-51.032c14.288-61.074,29.061-124.228,29.061-186.529
	C434.424,210.01,431.326,162.054,425.216,113.461z"/>
<path style="fill:#D4CBF6;" d="M394.367,0H117.633C79.135,0,47.815,31.322,47.815,69.818c0,38.498,31.32,69.818,69.818,69.818
	h276.733c38.498,0,69.818-31.32,69.818-69.818C464.185,31.322,432.865,0,394.367,0z"/>
<g>
	<path style="fill:#F4C514;" d="M392.257,418.909H119.743c-12.853,0-23.273-10.418-23.273-23.273
		c0-12.851,10.42-23.273,23.273-23.273h272.516c12.853,0,23.273,10.422,23.273,23.273
		C415.53,408.491,405.11,418.909,392.257,418.909z"/>
	<path style="fill:#F4C514;" d="M410.649,281.819c-5.956,0.002-11.913-2.271-16.458-6.816l-35.174-35.181l-35.179,35.181
		c-4.364,4.364-10.283,6.816-16.457,6.816s-12.092-2.451-16.457-6.816l-35.176-35.179l-35.173,35.179
		c-4.368,4.364-10.285,6.816-16.457,6.816s-12.092-2.451-16.457-6.816l-35.177-35.181l-35.176,35.181
		c-9.09,9.087-23.822,9.087-32.914,0c-9.089-9.087-9.089-23.822,0-32.912l51.631-51.639c4.364-4.364,10.285-6.816,16.457-6.816
		s12.093,2.451,16.455,6.816l35.179,35.181l35.173-35.178c4.364-4.366,10.285-6.819,16.457-6.819c6.172,0,12.093,2.451,16.457,6.816
		l35.176,35.182l35.179-35.182c4.364-4.364,10.282-6.816,16.457-6.816c6.173,0,12.093,2.451,16.455,6.816l51.634,51.639
		c9.087,9.089,9.086,23.824-0.002,32.912C422.56,279.547,416.604,281.819,410.649,281.819z"/>
</g>
<path style="fill:#AB99EC;" d="M464.185,69.818C464.185,31.32,432.865,0,394.367,0h-138.62v139.636h138.62
	C432.865,139.636,464.185,108.316,464.185,69.818z"/>
<g>
	<path style="fill:#E9D535;" d="M392.257,418.909c12.853,0,23.273-10.418,23.273-23.273c0-12.851-10.42-23.273-23.273-23.273
		h-136.51v46.545h136.51V418.909z"/>
	<path style="fill:#E9D535;" d="M290.923,275.003c4.364,4.364,10.285,6.816,16.457,6.816s12.093-2.451,16.457-6.816l35.179-35.181
		l35.174,35.181c4.548,4.544,10.504,6.817,16.458,6.816c5.955,0,11.911-2.271,16.455-6.816c9.087-9.087,9.089-23.822,0.002-32.912
		l-51.634-51.639c-4.364-4.364-10.283-6.816-16.455-6.816c-6.173,0-12.093,2.451-16.457,6.816l-35.179,35.182l-35.176-35.182
		c-4.364-4.364-10.285-6.814-16.457-6.816v56.188L290.923,275.003z"/>
</g>
</svg>