<?xml version="1.0" encoding="iso-8859-1"?>
<!-- Uploaded to: SVG Repo, www.svgrepo.com, Generator: SVG Repo Mixer Tools -->
<svg version="1.1" id="Layer_1" xmlns="http://www.w3.org/2000/svg" xmlns:xlink="http://www.w3.org/1999/xlink" 
	 viewBox="0 0 512 512" xml:space="preserve">
<path style="fill:#F9B856;" d="M295.205,390.057c1.214-21.381,15.291-39.91,35.566-46.806c10.574-3.596,20.147-9.356,28.151-17.36
	c36.058-36.058,26.604-103.974-21.117-151.695S222.168,117.021,186.11,153.08c-8.003,8.003-13.763,17.577-17.36,28.151
	c-6.897,20.277-25.422,34.352-46.806,35.566c-31.645,1.795-61.7,14.023-84.69,37.014C-16.91,307.974-11.36,401.34,49.651,462.35
	s154.376,66.56,208.54,12.397C281.181,451.756,293.41,421.702,295.205,390.057z"/>
<path style="fill:#F8A734;" d="M295.205,390.057c1.214-21.381,15.291-39.91,35.566-46.806c10.574-3.596,20.147-9.356,28.151-17.36
	c36.058-36.058,26.604-103.974-21.117-151.695L49.651,462.35l0,0c61.01,61.01,154.376,66.56,208.54,12.397
	C281.181,451.756,293.41,421.702,295.205,390.057z"/>
<path style="fill:#3E3D41;" d="M146.971,442.169L69.832,365.03c-6.986-6.986-6.986-18.314,0-25.3c6.986-6.986,18.314-6.986,25.3,0
	l77.138,77.138c6.986,6.986,6.986,18.314,0,25.3C165.285,449.156,153.957,449.156,146.971,442.169z"/>
<rect x="343.625" y="-5.81" transform="matrix(-0.7071 -0.7071 0.7071 -0.7071 543.0003 499.1695)" style="fill:#844D00;" width="62.512" height="285.872"/>
<rect x="370.061" y="5.136" transform="matrix(-0.7071 -0.7071 0.7071 -0.7071 553.9403 525.5942)" style="fill:#704100;" width="31.526" height="285.872"/>
<path style="fill:#F9B856;" d="M498.05,81.308c18.601-18.601,18.601-48.756,0-67.357c-18.601-18.601-48.756-18.601-67.357,0
	l-26.262,26.262c-5.763,5.763-5.763,15.107,0,20.87l46.487,46.487c5.763,5.763,15.107,5.763,20.87,0L498.05,81.308z"/>
<path style="fill:#F8A734;" d="M498.05,13.951l-70.376,70.376l23.243,23.243c5.763,5.763,15.107,5.763,20.87,0l26.262-26.262
	C516.65,62.707,516.65,32.55,498.05,13.951z"/>
<circle style="fill:#3E3D41;" cx="245.795" cy="266.211" r="52.205"/>
<rect x="388.412" y="81.008" transform="matrix(-0.7071 -0.7071 0.7071 -0.7071 651.1367 454.3549)" style="fill:#704100;" width="62.512" height="22.63"/>
<g>
	<path style="fill:#333236;" d="M282.709,229.292L282.709,229.292l-73.83,73.83l0,0c20.388,20.388,53.442,20.388,73.83,0
		C303.095,282.734,303.095,249.68,282.709,229.292z"/>
	<path style="fill:#333236;" d="M172.271,416.868l-38.57-38.57l-25.3,25.301l38.57,38.57c6.986,6.986,18.314,6.986,25.3,0
		C179.257,435.182,179.257,423.854,172.271,416.868z"/>
</g>
</svg>