<?xml version="1.0" encoding="iso-8859-1"?>
<!-- Uploaded to: SVG Repo, www.svgrepo.com, Generator: SVG Repo Mixer Tools -->
<svg version="1.1" id="Layer_1" xmlns="http://www.w3.org/2000/svg" xmlns:xlink="http://www.w3.org/1999/xlink" 
	 viewBox="0 0 512 512" xml:space="preserve">
<rect x="231.214" y="394.16" style="fill:#323236;" width="49.58" height="101.317"/>
<path style="fill:#797882;" d="M381.334,325.688c-3.133,14.271-13.338,26.031-27.034,31.119
	c-65.533,24.344-131.067,24.344-196.599,0c-13.716-5.095-23.896-16.828-27.034-31.119c-20.222-92.103-20.222-184.207,0-276.31
	c3.133-14.271,13.338-26.032,27.034-31.119c65.533-24.344,131.067-24.344,196.599,0c13.716,5.095,23.896,16.828,27.034,31.119
	C401.556,141.481,401.556,233.584,381.334,325.688z"/>
<path style="fill:#57565C;" d="M381.334,49.378c-3.137-14.292-13.318-26.024-27.034-31.119C321.534,6.086,288.767,0,256,0v375.066
	c32.767,0,65.533-6.086,98.3-18.258c13.696-5.088,23.902-16.849,27.034-31.119C401.556,233.584,401.556,141.481,381.334,49.378z"/>
<path style="fill:#D9D8DB;" d="M292.686,410.642h-73.372c-15.187,0-27.499-12.311-27.499-27.499l0,0
	c0-15.187,12.311-27.498,27.499-27.498h73.372c15.187,0,27.498,12.311,27.498,27.498l0,0
	C320.185,398.331,307.873,410.642,292.686,410.642z"/>
<path style="fill:#C6C5CA;" d="M329.593,512H182.406c-15.187,0-27.499-12.311-27.499-27.499l0,0
	c0-15.187,12.311-27.499,27.499-27.499h147.187c15.187,0,27.499,12.311,27.499,27.499l0,0C357.093,499.688,344.78,512,329.593,512z"
	/>
<g>
	<path style="fill:#3E3E42;" d="M300.765,121.168h-89.53c-9.127,0-16.526-7.399-16.526-16.526s7.399-16.526,16.526-16.526h89.53
		c9.127,0,16.526,7.399,16.526,16.526S309.892,121.168,300.765,121.168z"/>
	<path style="fill:#3E3E42;" d="M300.765,187.546h-89.53c-9.127,0-16.526-7.399-16.526-16.526s7.399-16.526,16.526-16.526h89.53
		c9.127,0,16.526,7.399,16.526,16.526C317.291,180.148,309.892,187.546,300.765,187.546z"/>
	<path style="fill:#3E3E42;" d="M300.765,253.925h-89.53c-9.127,0-16.526-7.399-16.526-16.526s7.399-16.526,16.526-16.526h89.53
		c9.127,0,16.526,7.399,16.526,16.526S309.892,253.925,300.765,253.925z"/>
	<path style="fill:#3E3E42;" d="M300.765,320.303h-89.53c-9.127,0-16.526-7.399-16.526-16.526c0-9.127,7.399-16.526,16.526-16.526
		h89.53c9.127,0,16.526,7.399,16.526,16.526C317.291,312.904,309.892,320.303,300.765,320.303z"/>
	<path style="fill:#3E3E42;" d="M159.747,237.399c0-9.127-7.399-16.526-16.526-16.526H116.39
		c0.583,11.017,1.463,22.034,2.625,33.051h24.207C152.348,253.925,159.747,246.526,159.747,237.399z"/>
	<path style="fill:#3E3E42;" d="M143.221,154.495h-26.845c-0.578,11.017-0.876,22.034-0.875,33.051h27.722
		c9.127,0,16.526-7.399,16.526-16.526C159.747,161.894,152.348,154.495,143.221,154.495z"/>
	<path style="fill:#3E3E42;" d="M143.221,287.251h-19.805c1.746,11.017,3.781,22.034,6.105,33.051h13.7
		c9.127,0,16.526-7.399,16.526-16.526C159.747,294.65,152.348,287.251,143.221,287.251z"/>
	<path style="fill:#3E3E42;" d="M143.221,88.118h-19.853c-1.74,11.017-3.194,22.034-4.356,33.051h24.209
		c9.127,0,16.526-7.399,16.526-16.526S152.348,88.118,143.221,88.118z"/>
</g>
<g>
	<path style="fill:#2D2E30;" d="M388.584,287.251h-19.805c-9.127,0-16.526,7.399-16.526,16.526s7.399,16.526,16.526,16.526h13.701
		C384.804,309.286,386.838,298.269,388.584,287.251z"/>
	<path style="fill:#2D2E30;" d="M368.779,88.118c-9.127,0-16.526,7.399-16.526,16.526s7.399,16.526,16.526,16.526h24.209
		c-1.162-11.017-2.615-22.034-4.356-33.051h-19.853V88.118z"/>
	<path style="fill:#2D2E30;" d="M395.625,154.495h-26.846c-9.127,0-16.526,7.399-16.526,16.526c0,9.127,7.399,16.526,16.526,16.526
		h27.722C396.501,176.529,396.203,165.512,395.625,154.495z"/>
</g>
<g>
	<path style="fill:#3E3E42;" d="M185.49,63.605c9.127,0,16.526-7.399,16.526-16.526V5.519c-11.017,2.248-22.034,5.182-33.051,8.805
		V47.08C168.965,56.206,176.363,63.605,185.49,63.605z"/>
	<path style="fill:#3E3E42;" d="M326.509,63.605c9.127,0,16.526-7.399,16.526-16.526V14.323
		c-11.017-3.624-22.034-6.557-33.051-8.805v41.561C309.984,56.206,317.383,63.605,326.509,63.605z"/>
</g>
<path style="fill:#2D2E30;" d="M352.254,237.399c0,9.127,7.399,16.526,16.526,16.526h24.207c1.162-11.017,2.041-22.034,2.624-33.051
	H368.78C359.652,220.873,352.254,228.272,352.254,237.399z"/>
<path style="fill:#3E3E42;" d="M272.525,47.079V0.531c-11.017-0.688-22.034-0.688-33.051,0v46.548
	c0,9.127,7.399,16.526,16.526,16.526S272.525,56.206,272.525,47.079z"/>
</svg>