<?xml version="1.0" standalone="no"?>
<!DOCTYPE svg PUBLIC "-//W3C//DTD SVG 20010904//EN"
 "http://www.w3.org/TR/2001/REC-SVG-20010904/DTD/svg10.dtd">
<svg version="1.0" xmlns="http://www.w3.org/2000/svg"
 width="256.000000pt" height="256.000000pt" viewBox="0 0 256.000000 256.000000"
 preserveAspectRatio="xMidYMid meet">

<g transform="translate(0.000000,256.000000) scale(0.100000,-0.100000)"
fill="#000000" stroke="none">
<path d="M1477 1914 c-13 -13 -7 -91 7 -103 9 -7 41 -11 83 -9 l68 3 0 55 0
55 -75 3 c-42 1 -79 0 -83 -4z"/>
<path d="M1482 1668 c-9 -9 -12 -94 -12 -350 0 -323 1 -338 19 -348 29 -15
126 -13 140 4 8 9 11 112 9 357 l-3 344 -70 3 c-46 2 -74 -1 -83 -10z"/>
<path d="M1762 1548 c-18 -18 -15 -113 4 -132 21 -21 136 -22 153 -2 7 9 11
40 9 78 l-3 63 -75 3 c-50 2 -79 -1 -88 -10z"/>
<path d="M342 1428 c-17 -17 -17 -299 0 -316 16 -16 140 -16 156 0 17 17 17
299 0 316 -7 7 -40 12 -78 12 -38 0 -71 -5 -78 -12z"/>
<path d="M62 1348 c-16 -16 -16 -170 0 -186 7 -7 40 -12 78 -12 38 0 71 5 78
12 16 16 16 170 0 186 -7 7 -40 12 -78 12 -38 0 -71 -5 -78 -12z"/>
<path d="M1760 1271 c-15 -29 -13 -384 2 -399 12 -12 124 -17 152 -6 14 5 16
33 16 209 0 231 7 215 -95 215 -53 0 -66 -3 -75 -19z"/>
<path d="M348 949 c-13 -7 -18 -23 -18 -54 0 -54 16 -65 90 -65 74 0 90 11 90
65 0 34 -5 47 -19 55 -25 13 -121 13 -143 -1z"/>
<path d="M1474 827 c-3 -8 -4 -41 -2 -73 l3 -59 80 0 80 0 0 70 0 70 -78 3
c-59 2 -79 0 -83 -11z"/>
<path d="M1482 598 c-17 -17 -15 -83 2 -97 9 -7 41 -11 83 -9 l68 3 3 49 c2
32 -1 52 -10 57 -20 13 -132 11 -146 -3z"/>
</g>
</svg>
